<svg width="52.000000pt" height="50.000000pt" viewBox="0 0 52.000000 50.000000" xmlns="http://www.w3.org/2000/svg">
  <g transform="translate(0.000000,50.000000) scale(0.100000,-0.100000)" fill="#00000000" stroke="none">
    <path d="M0 250 l0 -250 260 0 260 0 0 250 0 250 -260 0 -260 0 0 -250z m487
-7 l-7 -6 0 13 0 13 7 -6 6 -7 -6 -7z" />
  </g>
  <g transform="translate(0.000000,50.000000) scale(0.100000,-0.100000)" fill="#fff" stroke="none">
    <path d="M380 356 l0 -5 48 -45 47 -46 -232 0 -233 0 0 -10 0 -10 233 0 232 0
-47 -46 -48 -45 0 -5 0 -4 13 0 13 0 54 55 54 55 -54 55 -54 55 -13 0 -13 0 0
-4z" />
  </g>
</svg>