<svg xmlns="http://www.w3.org/2000/svg" version="1.1" xmlns:xlink="http://www.w3.org/1999/xlink" xmlns:svgjs="http://svgjs.dev/svgjs" viewBox="0 0 4.451277814960968 3.281735959630084"><g transform="matrix(1,0,0,1,0.31776232056642173,1.8554736390636626)"><g><path d=" M 0.6075 0.02324999999999977 Q 0.654 0.046499999999999764 0.654 0.08549999999999969 Q 0.654 0.11549999999999971 0.63375 0.1327499999999997 Q 0.6135 0.1499999999999997 0.5865 0.1499999999999997 Q 0.5565 0.1499999999999997 0.5407500000000001 0.13649999999999973 Q 0.525 0.12299999999999978 0.5115000000000001 0.0944999999999997 Q 0.4935 0.06299999999999972 0.47475 0.04724999999999979 Q 0.456 0.03149999999999964 0.4215 0.03149999999999964 Q 0.34650000000000003 0.03149999999999964 0.303 0.12899999999999978 Q 0.2595 0.2264999999999997 0.2595 0.43049999999999977 L 0.2595 0.5234999999999997 Q 0.3375 0.5219999999999997 0.4335 0.5099999999999998 Q 0.438 0.5099999999999998 0.441 0.5204999999999997 Q 0.444 0.5309999999999997 0.444 0.5459999999999997 Q 0.444 0.5594999999999998 0.4395 0.5729999999999997 Q 0.435 0.5864999999999997 0.429 0.5849999999999997 Q 0.3375 0.5639999999999997 0.2595 0.5624999999999998 L 0.2595 0.9674999999999998 Q 0.2595 1.0139999999999998 0.26925 1.0349999999999997 Q 0.279 1.0559999999999998 0.3075 1.0634999999999997 Q 0.336 1.0709999999999997 0.3975 1.0709999999999997 Q 0.4035 1.0709999999999997 0.4035 1.0799999999999998 Q 0.4035 1.0889999999999997 0.3975 1.0889999999999997 L 0.297 1.0874999999999997 Q 0.264 1.0859999999999999 0.1965 1.0859999999999999 L 0.108 1.0874999999999997 Q 0.0855 1.0889999999999997 0.043500000000000004 1.0889999999999997 Q 0.0375 1.0889999999999997 0.0375 1.0799999999999998 Q 0.0375 1.0709999999999997 0.043500000000000004 1.0709999999999997 Q 0.084 1.0709999999999997 0.10350000000000001 1.0627499999999996 Q 0.123 1.0544999999999998 0.1305 1.0334999999999996 Q 0.138 1.0124999999999997 0.138 0.9674999999999998 L 0.138 0.6299999999999997 Q 0.138 0.5804999999999997 0.11850000000000001 0.5669999999999997 Q 0.099 0.5534999999999998 0.0375 0.5534999999999998 Q 0.033 0.5534999999999998 0.033 0.5399999999999997 Q 0.033 0.5279999999999997 0.0375 0.5279999999999997 Q 0.093 0.5279999999999997 0.11325 0.5137499999999997 Q 0.1335 0.4994999999999997 0.135 0.46199999999999974 Q 0.14250000000000002 0.2174999999999997 0.2265 0.10874999999999968 Q 0.3105 -2.220446049250313e-16 0.47850000000000004 -2.220446049250313e-16 Q 0.561 -2.220446049250313e-16 0.6075 0.02324999999999977 Z M 0.665989013671875 1.0657499999999998 Q 0.596989013671875 1.0229999999999997 0.559489013671875 0.9502499999999997 Q 0.521989013671875 0.8774999999999997 0.521989013671875 0.7919999999999998 Q 0.521989013671875 0.6944999999999997 0.5707390136718751 0.6262499999999998 Q 0.619489013671875 0.5579999999999997 0.695239013671875 0.5242499999999998 Q 0.770989013671875 0.4904999999999997 0.850489013671875 0.4904999999999997 Q 0.941989013671875 0.4904999999999997 1.010239013671875 0.5339999999999997 Q 1.078489013671875 0.5774999999999997 1.114489013671875 0.6487499999999997 Q 1.150489013671875 0.7199999999999998 1.150489013671875 0.8009999999999997 Q 1.150489013671875 0.8909999999999998 1.1062390136718752 0.9614999999999998 Q 1.061989013671875 1.0319999999999998 0.986989013671875 1.0702499999999997 Q 0.911989013671875 1.1084999999999998 0.8249890136718749 1.1084999999999998 Q 0.7349890136718751 1.1084999999999998 0.665989013671875 1.0657499999999998 Z M 0.971239013671875 1.0199999999999998 Q 1.006489013671875 0.9614999999999998 1.006489013671875 0.8489999999999998 Q 1.006489013671875 0.7484999999999997 0.978739013671875 0.6734999999999998 Q 0.950989013671875 0.5984999999999998 0.903739013671875 0.5594999999999998 Q 0.856489013671875 0.5204999999999997 0.800989013671875 0.5204999999999997 Q 0.733489013671875 0.5204999999999997 0.698989013671875 0.5759999999999997 Q 0.6644890136718751 0.6314999999999997 0.6644890136718751 0.7394999999999997 Q 0.6644890136718751 0.8369999999999997 0.690739013671875 0.9142499999999998 Q 0.7169890136718751 0.9914999999999997 0.7642390136718751 1.0349999999999997 Q 0.8114890136718751 1.0784999999999998 0.8699890136718751 1.0784999999999998 Q 0.935989013671875 1.0784999999999998 0.971239013671875 1.0199999999999998 Z M 1.7189318847656252 0.5174999999999997 Q 1.750431884765625 0.5399999999999997 1.750431884765625 0.5714999999999998 Q 1.750431884765625 0.5999999999999998 1.733181884765625 0.6179999999999997 Q 1.715931884765625 0.6359999999999997 1.685931884765625 0.6359999999999997 Q 1.666431884765625 0.6359999999999997 1.653681884765625 0.6277499999999998 Q 1.640931884765625 0.6194999999999997 1.627431884765625 0.6044999999999998 Q 1.613931884765625 0.5909999999999997 1.603431884765625 0.5842499999999997 Q 1.592931884765625 0.5774999999999997 1.577931884765625 0.5774999999999997 Q 1.561431884765625 0.5774999999999997 1.542681884765625 0.5902499999999997 Q 1.523931884765625 0.6029999999999998 1.484931884765625 0.6434999999999997 L 1.484931884765625 0.9674999999999998 Q 1.484931884765625 1.0094999999999998 1.496931884765625 1.0312499999999998 Q 1.508931884765625 1.0529999999999997 1.537431884765625 1.0619999999999998 Q 1.5659318847656252 1.0709999999999997 1.621431884765625 1.0709999999999997 Q 1.627431884765625 1.0709999999999997 1.627431884765625 1.0799999999999998 Q 1.627431884765625 1.0889999999999997 1.621431884765625 1.0889999999999997 Q 1.571931884765625 1.0889999999999997 1.5419318847656251 1.0874999999999997 L 1.423431884765625 1.0859999999999999 L 1.336431884765625 1.0874999999999997 Q 1.315431884765625 1.0889999999999997 1.277931884765625 1.0889999999999997 Q 1.273431884765625 1.0889999999999997 1.273431884765625 1.0799999999999998 Q 1.273431884765625 1.0709999999999997 1.277931884765625 1.0709999999999997 Q 1.328931884765625 1.0709999999999997 1.345431884765625 1.0499999999999998 Q 1.361931884765625 1.0289999999999997 1.361931884765625 0.9674999999999998 L 1.361931884765625 0.6809999999999997 Q 1.361931884765625 0.6329999999999998 1.350681884765625 0.6104999999999997 Q 1.339431884765625 0.5879999999999997 1.313931884765625 0.5879999999999997 Q 1.291431884765625 0.5879999999999997 1.238931884765625 0.6104999999999997 L 1.237431884765625 0.6104999999999997 Q 1.231431884765625 0.6104999999999997 1.228431884765625 0.6029999999999998 Q 1.225431884765625 0.5954999999999997 1.229931884765625 0.5939999999999998 L 1.426431884765625 0.4979999999999998 Q 1.435431884765625 0.4949999999999998 1.436931884765625 0.4949999999999998 Q 1.451931884765625 0.4949999999999998 1.466931884765625 0.5272499999999998 Q 1.481931884765625 0.5594999999999998 1.484931884765625 0.6119999999999997 Q 1.543431884765625 0.5459999999999997 1.582431884765625 0.5204999999999997 Q 1.621431884765625 0.4949999999999998 1.652931884765625 0.4949999999999998 Q 1.6874318847656251 0.4949999999999998 1.7189318847656252 0.5174999999999997 Z M 1.958089599609375 1.0642499999999997 Q 1.8898395996093749 1.0214999999999996 1.856839599609375 0.9532499999999997 Q 1.823839599609375 0.8849999999999998 1.823839599609375 0.8099999999999997 Q 1.823839599609375 0.7154999999999998 1.874839599609375 0.6442499999999998 Q 1.925839599609375 0.5729999999999997 2.006089599609375 0.5347499999999997 Q 2.0863395996093748 0.4964999999999997 2.168839599609375 0.4964999999999997 Q 2.239339599609375 0.4964999999999997 2.296339599609375 0.5249999999999997 Q 2.3533395996093747 0.5534999999999998 2.3533395996093747 0.6014999999999997 Q 2.3533395996093747 0.6269999999999998 2.333839599609375 0.6457499999999997 Q 2.314339599609375 0.6644999999999998 2.279839599609375 0.6644999999999998 Q 2.222839599609375 0.6644999999999998 2.197339599609375 0.5969999999999998 Q 2.182339599609375 0.5594999999999998 2.165839599609375 0.5437499999999997 Q 2.149339599609375 0.5279999999999997 2.113339599609375 0.5279999999999997 Q 2.042839599609375 0.5279999999999997 2.001589599609375 0.5917499999999998 Q 1.9603395996093749 0.6554999999999997 1.9603395996093749 0.7619999999999998 Q 1.9603395996093749 0.8864999999999997 2.018089599609375 0.9637499999999998 Q 2.075839599609375 1.0409999999999997 2.198839599609375 1.0409999999999997 Q 2.240839599609375 1.0409999999999997 2.2738395996093748 1.0304999999999997 Q 2.3068395996093747 1.0199999999999998 2.345839599609375 0.9974999999999997 L 2.347339599609375 0.9974999999999997 Q 2.351839599609375 0.9974999999999997 2.3555895996093748 1.0019999999999998 Q 2.359339599609375 1.0064999999999997 2.356339599609375 1.0094999999999998 Q 2.300839599609375 1.0589999999999997 2.246839599609375 1.0829999999999997 Q 2.192839599609375 1.1069999999999998 2.123839599609375 1.1069999999999998 Q 2.0263395996093747 1.1069999999999998 1.958089599609375 1.0642499999999997 Z M 3.15431396484375 1.0799999999999998 Q 3.15431396484375 1.0889999999999997 3.14831396484375 1.0889999999999997 Q 3.11081396484375 1.0889999999999997 3.08831396484375 1.0874999999999997 L 3.00281396484375 1.0859999999999999 L 2.91731396484375 1.0874999999999997 Q 2.89481396484375 1.0889999999999997 2.85731396484375 1.0889999999999997 Q 2.85281396484375 1.0889999999999997 2.85281396484375 1.0799999999999998 Q 2.85281396484375 1.0709999999999997 2.85731396484375 1.0709999999999997 Q 2.90681396484375 1.0709999999999997 2.92481396484375 1.0492499999999998 Q 2.94281396484375 1.0274999999999999 2.94281396484375 0.9674999999999998 L 2.94281396484375 0.7439999999999998 Q 2.94281396484375 0.5789999999999997 2.81381396484375 0.5789999999999997 Q 2.77331396484375 0.5789999999999997 2.73206396484375 0.5977499999999998 Q 2.69081396484375 0.6164999999999997 2.65931396484375 0.6479999999999997 L 2.65931396484375 0.9674999999999998 Q 2.65931396484375 1.0289999999999997 2.67656396484375 1.0499999999999998 Q 2.6938139648437502 1.0709999999999997 2.74481396484375 1.0709999999999997 Q 2.75081396484375 1.0709999999999997 2.75081396484375 1.0799999999999998 Q 2.75081396484375 1.0889999999999997 2.74481396484375 1.0889999999999997 Q 2.70731396484375 1.0889999999999997 2.68481396484375 1.0874999999999997 L 2.59931396484375 1.0859999999999999 L 2.51381396484375 1.0874999999999997 Q 2.49131396484375 1.0889999999999997 2.45381396484375 1.0889999999999997 Q 2.44931396484375 1.0889999999999997 2.44931396484375 1.0799999999999998 Q 2.44931396484375 1.0709999999999997 2.45381396484375 1.0709999999999997 Q 2.50331396484375 1.0709999999999997 2.52131396484375 1.0492499999999998 Q 2.53931396484375 1.0274999999999999 2.53931396484375 0.9674999999999998 L 2.53931396484375 0.20099999999999973 Q 2.53931396484375 0.14849999999999974 2.52881396484375 0.12524999999999975 Q 2.5183139648437503 0.10199999999999976 2.4943139648437502 0.10199999999999976 Q 2.4718139648437503 0.10199999999999976 2.43281396484375 0.11999999999999977 L 2.43131396484375 0.11999999999999977 Q 2.42681396484375 0.11999999999999977 2.42306396484375 0.11174999999999968 Q 2.41931396484375 0.1034999999999997 2.4238139648437502 0.10199999999999976 L 2.63231396484375 0.0029999999999996696 L 2.63981396484375 0.0014999999999996128 Q 2.64581396484375 0.0014999999999996128 2.65256396484375 0.007499999999999618 Q 2.65931396484375 0.013499999999999623 2.65931396484375 0.017999999999999794 L 2.65931396484375 0.6179999999999997 Q 2.76731396484375 0.4934999999999997 2.88881396484375 0.4934999999999997 Q 2.97131396484375 0.4934999999999997 3.01706396484375 0.5429999999999997 Q 3.06281396484375 0.5924999999999998 3.06281396484375 0.6779999999999997 L 3.06281396484375 0.9674999999999998 Q 3.06281396484375 1.0289999999999997 3.0800639648437502 1.0499999999999998 Q 3.09731396484375 1.0709999999999997 3.14831396484375 1.0709999999999997 Q 3.15431396484375 1.0709999999999997 3.15431396484375 1.0799999999999998 Z M 3.7632861328125005 0.9944999999999997 Q 3.7662861328125 0.9944999999999997 3.7700361328125003 1.0004999999999997 Q 3.7737861328125 1.0064999999999997 3.7707861328125003 1.0094999999999998 Q 3.7167861328125 1.0604999999999998 3.6612861328125 1.0837499999999998 Q 3.6057861328125003 1.1069999999999998 3.5397861328125 1.1069999999999998 Q 3.4467861328125 1.1069999999999998 3.3800361328125 1.0672499999999998 Q 3.3132861328125003 1.0274999999999999 3.2780361328125003 0.9607499999999998 Q 3.2427861328125003 0.8939999999999997 3.2427861328125003 0.8174999999999997 Q 3.2427861328125003 0.7289999999999998 3.2870361328125 0.6554999999999997 Q 3.3312861328125 0.5819999999999997 3.4085361328125003 0.5392499999999998 Q 3.4857861328125 0.4964999999999997 3.5787861328125 0.4964999999999997 Q 3.6672861328125004 0.4964999999999997 3.7152861328125004 0.5362499999999998 Q 3.7632861328125005 0.5759999999999997 3.7632861328125005 0.6449999999999998 Q 3.7632861328125005 0.6854999999999998 3.7467861328125003 0.6854999999999998 L 3.6642861328125003 0.6854999999999998 L 3.3822861328125002 0.6884999999999997 Q 3.3777861328125 0.7199999999999998 3.3777861328125 0.7559999999999998 Q 3.3777861328125 0.8864999999999997 3.4385361328125 0.9637499999999998 Q 3.4992861328125002 1.0409999999999997 3.6072861328125003 1.0409999999999997 Q 3.6462861328125 1.0409999999999997 3.6867861328125002 1.0297499999999997 Q 3.7272861328125 1.0184999999999997 3.7602861328125003 0.9959999999999998 L 3.7632861328125005 0.9944999999999997 Z M 3.4392861328125 0.5624999999999998 Q 3.4032861328125 0.5984999999999998 3.3882861328125 0.6614999999999998 L 3.6222861328125 0.6569999999999998 Q 3.6192861328125003 0.5954999999999997 3.5952861328125003 0.5609999999999997 Q 3.5712861328125003 0.5264999999999997 3.5247861328125003 0.5264999999999997 Q 3.4752861328125 0.5264999999999997 3.4392861328125 0.5624999999999998 Z" fill="#fffdfa" fill-rule="nonzero"></path></g><g></g><g clip-path="url(&quot;#SvgjsClipPath1030&quot;)"><g clip-path="url(&quot;#SvgjsClipPath1008&quot;)"><path d=" M 0.4320908530585188 -1.363884559234577 C 0.4320908530585188 -1.363884559234577 0.3044836022944758 -1.4044077651119373 0.23841096835359293 -1.4223472014614018 C 0.17233833441271007 -1.4402866378108656 0.12448491592842542 -1.424025876104208 0.1178093864321971 -1.3818799514054685 C 0.11113385693596878 -1.339734026706728 0.24702256927119345 -1.2228143378352208 0.35674074392505706 -1.1842160122149443 C 0.35674074392505706 -1.1842160122149443 0.4425210181724932 -1.1517616357873433 0.5368569375161039 -1.153680920462286 C 0.6311928568597126 -1.1556002051372283 0.7608536862701242 -1.2449336740452734 0.790974704944226 -1.318795358328782 C 0.8210957236183277 -1.3926570426122895 0.9042236919301281 -1.4972944286805911 0.9630164735033728 -1.5017708943947432 C 1.0218092550766156 -1.5062473601088955 1.2629676542622685 -1.4080784669975426 1.3567663977201785 -1.334720385106877 C 1.4505651411780907 -1.2613623032162116 1.6606680594718148 -1.078918347453805 1.7602078702081247 -1.0368451653229194 C 1.8597476809444344 -0.9947719831920335 2.467086571129862 -0.863840956635231 2.511431559610681 -0.8336695777218468 C 2.5557765480914996 -0.8034981988084616 2.586048647483451 -0.703247749140029 2.5897249449512008 -0.6606485822877296 C 2.593401242418949 -0.6180494154354313 2.541602938524068 -0.5637275039941972 2.4866039616435676 -0.5431749307840968 C 2.431604984763065 -0.5226223575739966 1.7590775626153035 -0.3447499924221684 1.402135377733111 -0.37057360401068196 C 1.0451931928509186 -0.3963972155991964 0.7424162431099629 -0.5445402528269129 0.6682356106443226 -0.5525139573802461 C 0.5940549781786824 -0.5604876619335794 0.5247201198486093 -0.4742709322790133 0.4529903523614677 -0.4631860840543438 C 0.3812605848743259 -0.4521012358296743 0.10695955265751853 -0.47776817111819336 0.07108627554073378 -0.5437960404019344 C 0.0352129984239471 -0.6098239096856756 0.07629576251557742 -0.7285062069321299 0.04270548291300955 -0.7503793375279055 C 0.00911520331044169 -0.7722524681236802 -0.003262224389190094 -0.7124021215254688 0.0006994477678358124 -0.6567260792057038 C 0.004661119924859802 -0.6010500368859388 -0.012701971463906099 -0.4804652417109698 0.10134718376840042 -0.4435343995692156 C 0.21539633900070693 -0.40660355742746224 0.39691142812742725 -0.3776464198390421 0.4922657434210074 -0.38847946686728907 C 0.5876200587145874 -0.399312513895536 0.6315397829525592 -0.4915836634284949 0.7135486348358233 -0.4751606298396991 C 0.7955574867190875 -0.4587375962509035 1.2221870516063402 -0.2830642948811526 1.4522158379101828 -0.2580520427033286 C 1.6822446242140234 -0.23303979052550572 2.0434002824496624 -0.2679394363494627 2.261258677593151 -0.33527107627245045 C 2.4791170727366416 -0.4026027161954382 2.666317273320336 -0.4919473762677693 2.6930361780516807 -0.5744878084545885 C 2.7197550827830255 -0.6570282406414077 2.6360955341676675 -0.8769905746705504 2.5629221064877115 -0.8938668504129038 C 2.4897486788077536 -0.9107431261552563 1.8671786140299247 -1.0512146202653454 1.7916942109250387 -1.0842061725786452 C 1.7162098078201529 -1.117197724891945 1.395364723340451 -1.3868712106767451 1.319499820649861 -1.4272153579255396 C 1.243634917959269 -1.4675595051743335 0.9979105237451824 -1.5684814246998902 0.9084931211049967 -1.5284506300510863 C 0.8190757184648109 -1.4884198354022824 0.7269612452318486 -1.300710436843604 0.6726393337906135 -1.2668963339553285 C 0.6183174223493784 -1.233082231067053 0.43040098725142073 -1.2145384718461796 0.3458573366575191 -1.2514861007343607 C 0.2613136860636175 -1.2884337296225419 0.16442058568079704 -1.3645840070024098 0.1947766188048897 -1.3764802146377688 C 0.22513265192898427 -1.388376422273128 0.3573898314536038 -1.3420897667887965 0.4007499974773084 -1.3310496832212688 C 0.44411016350101107 -1.320009599653741 0.4775717447143012 -1.349610229188575 0.4320908530585188 -1.363884559234577 Z" fill="#ba8437" transform="matrix(1,0,0,1,0,0)" fill-rule="nonzero"></path></g></g></g><defs><clipPath id="SvgjsClipPath1030"><path d=" M 0 -1.5377113184972406 h 2.6981449445479577 v 1.2877113184972406 h -2.6981449445479577 Z"></path></clipPath><clipPath id="SvgjsClipPath1008"><path d=" M 0 -1.5377113184972409 L 2.6981449445479577 -1.5377113184972409 L 2.6981449445479577 -0.25 L 0 -0.25 Z"></path></clipPath></defs></svg>