<svg width="1920" height="1080" viewBox="0 0 1920 1080" xmlns="http://www.w3.org/2000/svg"><rect width="1920" height="1080" fill="#ffebd8"/><path d="M 0,1080 C 0,1080 0,180 0,180 C 88.36666666666665,202.81025641025641 176.7333333333333,225.62051282051283 290,233 C 403.2666666666667,240.37948717948717 541.4333333333334,232.3282051282051 642,230 C 742.5666666666666,227.6717948717949 805.5333333333334,231.0666666666667 901,228 C 996.4666666666666,224.9333333333333 1124.4333333333332,215.4051282051282 1234,190 C 1343.5666666666668,164.5948717948718 1434.7333333333333,123.31282051282052 1546,119 C 1657.2666666666667,114.68717948717948 1788.6333333333332,147.34358974358975 1920,180 C 1920,180 1920,1080 1920,1080 Z" fill="#ff812d" opacity="0.09999999999999999"/><path d="M 0,1080 C 0,1080 0,360 0,360 C 131.19230769230768,326.2641025641026 262.38461538461536,292.5282051282051 377,309 C 491.61538461538464,325.4717948717949 589.6538461538462,392.15128205128207 680,417 C 770.3461538461538,441.84871794871793 853,424.8666666666667 963,413 C 1073,401.1333333333333 1210.3461538461538,394.38205128205124 1308,370 C 1405.6538461538462,345.61794871794876 1463.6153846153845,303.6051282051282 1559,299 C 1654.3846153846155,294.3948717948718 1787.1923076923076,327.19743589743587 1920,360 C 1920,360 1920,1080 1920,1080 Z" fill="#ff812d" opacity="0.19999999999999998"/><path d="M 0,1080 C 0,1080 0,540 0,540 C 110.54615384615383,567.4897435897436 221.09230769230766,594.9794871794873 318,575 C 414.90769230769234,555.0205128205127 498.1769230769231,487.57179487179485 594,492 C 689.8230769230769,496.42820512820515 798.1999999999998,572.7333333333333 903,573 C 1007.8000000000002,573.2666666666667 1109.023076923077,497.49487179487187 1234,493 C 1358.976923076923,488.50512820512813 1507.7076923076922,555.2871794871795 1626,575 C 1744.2923076923078,594.7128205128205 1832.146153846154,567.3564102564103 1920,540 C 1920,540 1920,1080 1920,1080 Z" fill="#ff812d" opacity="0.3"/><path d="M 0,1080 C 0,1080 0,720 0,720 C 90.3923076923077,729.425641025641 180.7846153846154,738.851282051282 286,755 C 391.2153846153846,771.148717948718 511.2538461538462,794.0205128205129 621,772 C 730.7461538461538,749.9794871794871 830.2,683.0666666666667 932,652 C 1033.8,620.9333333333333 1137.946153846154,625.7128205128204 1251,657 C 1364.053846153846,688.2871794871796 1486.0153846153846,746.0820512820513 1599,761 C 1711.9846153846154,775.9179487179487 1815.9923076923078,747.9589743589743 1920,720 C 1920,720 1920,1080 1920,1080 Z" fill="#ff812d" opacity="0.39999999999999997"/><path d="M 0,1080 C 0,1080 0,900 0,900 C 130.76410256410256,891.4307692307693 261.5282051282051,882.8615384615385 364,874 C 466.4717948717949,865.1384615384615 540.6512820512822,855.9846153846152 640,864 C 739.3487179487178,872.0153846153848 863.8666666666666,897.2000000000002 988,923 C 1112.1333333333334,948.7999999999998 1235.8820512820512,975.2153846153847 1337,965 C 1438.1179487179488,954.7846153846153 1516.6051282051283,907.9384615384616 1610,891 C 1703.3948717948717,874.0615384615384 1811.6974358974358,887.0307692307692 1920,900 C 1920,900 1920,1080 1920,1080 Z" fill="#ff812d" opacity="0.49999999999999994"/></svg>